<?xml version="1.0" standalone="no"?>
<!DOCTYPE svg PUBLIC "-//W3C//DTD SVG 20010904//EN"
 "http://www.w3.org/TR/2001/REC-SVG-20010904/DTD/svg10.dtd">
<svg version="1.0" xmlns="http://www.w3.org/2000/svg"
 width="500.000000pt" height="500.000000pt" viewBox="0 0 500.000000 500.000000"
 preserveAspectRatio="xMidYMid meet">
<metadata>
Created by potrace 1.14, written by Peter Selinger 2001-2017
</metadata>
<g transform="translate(0.000000,500.000000) scale(0.100000,-0.100000)"
fill="#000000" stroke="none">
<path d="M3080 3911 c-8 -5 -46 -11 -84 -15 -98 -10 -188 -32 -267 -68 -66
-29 -72 -30 -122 -19 -67 15 -115 44 -114 68 2 22 -37 30 -58 13 -8 -6 -26
-16 -42 -21 l-28 -9 27 4 c15 2 25 -1 22 -5 -3 -5 -14 -9 -25 -9 -11 0 -17 -4
-14 -10 3 -5 19 -7 35 -3 28 5 210 -35 210 -47 0 -3 -12 -13 -26 -24 -26 -18
-26 -18 -15 3 20 36 -14 26 -45 -14 -14 -19 -32 -35 -38 -35 -19 0 -92 -82
-104 -115 -6 -16 -11 -24 -11 -17 -1 6 -5 12 -11 12 -15 0 -12 -68 6 -101 15
-29 14 -31 -15 -65 -17 -19 -31 -45 -31 -57 1 -21 1 -21 15 -3 8 10 16 24 18
30 2 6 8 8 12 4 11 -10 -3 -75 -19 -91 -11 -11 -13 -56 -12 -214 2 -177 0
-200 -13 -196 -23 6 -89 -24 -99 -44 -5 -10 -8 -25 -7 -33 3 -48 20 -131 35
-174 49 -137 61 -161 109 -211 35 -37 51 -63 56 -91 17 -98 38 -161 65 -196
16 -20 35 -48 41 -62 7 -14 15 -26 19 -26 4 0 26 -24 48 -53 22 -30 47 -61 56
-70 20 -19 20 -27 3 -27 -23 0 -48 -36 -50 -73 -2 -34 -4 -36 -62 -54 -75 -23
-185 -21 -263 3 -50 16 -69 31 -155 119 -101 103 -181 211 -202 273 l-12 35
-5 -39 c-4 -32 1 -47 27 -84 51 -71 52 -76 65 -250 9 -133 9 -175 -2 -215 -7
-27 -17 -50 -23 -49 -5 0 -18 13 -29 27 -24 32 -26 100 -4 142 23 44 31 75 19
75 -12 0 -39 -80 -47 -141 -5 -38 -2 -57 19 -100 30 -62 76 -142 86 -149 4 -3
34 -38 66 -79 63 -78 129 -135 219 -190 60 -36 67 -51 36 -72 -16 -11 -19 -20
-12 -44 6 -20 3 -46 -7 -79 -14 -45 -14 -49 3 -61 27 -20 88 -28 120 -15 27
10 28 13 21 53 -10 57 -10 89 -1 109 5 11 1 23 -13 37 -12 12 -21 23 -21 25 0
3 21 8 48 11 75 10 302 79 302 92 0 12 -9 10 -115 -28 -33 -12 -78 -25 -100
-30 -22 -4 -53 -11 -70 -15 -43 -9 -21 7 45 35 30 13 71 30 90 38 33 14 131
89 139 106 1 4 18 25 37 45 18 20 39 49 45 64 11 28 12 28 40 11 16 -10 29
-24 29 -31 0 -8 14 -39 31 -69 17 -30 29 -56 27 -58 -2 -2 -15 -9 -28 -14 -22
-9 -21 -10 11 -5 31 5 37 2 48 -22 18 -40 65 -99 142 -179 41 -43 81 -97 103
-139 l35 -70 -19 -32 c-31 -49 -25 -94 25 -196 25 -50 45 -97 45 -103 0 -6 25
-38 56 -71 31 -32 58 -68 59 -79 2 -11 8 -56 13 -100 6 -44 16 -96 22 -115 22
-62 44 -110 51 -110 7 0 -2 46 -33 155 -11 39 -24 101 -28 139 -4 40 -13 74
-21 80 -24 18 -83 99 -100 136 -9 19 -30 62 -45 94 -30 62 -38 136 -17 157 8
8 21 1 51 -29 45 -45 93 -58 164 -47 90 15 148 67 162 146 7 40 -21 113 -81
207 -18 29 -33 61 -33 71 0 10 -12 45 -26 77 -49 111 -54 140 -54 309 0 92 6
198 15 250 18 110 18 123 -1 65 -8 -25 -18 -122 -23 -218 -5 -96 -11 -175 -13
-177 -4 -5 -40 152 -61 270 -8 44 -13 94 -10 111 7 48 -14 108 -57 163 -22 28
-33 48 -24 44 15 -6 16 5 10 110 -8 139 -25 184 -96 260 -27 29 -60 66 -74 83
-28 35 -45 107 -27 118 6 4 11 0 11 -9 0 -9 6 -23 13 -31 35 -43 41 -46 76
-42 31 4 41 -1 78 -38 24 -23 54 -49 68 -58 41 -27 61 -82 73 -208 14 -133 30
-195 31 -115 1 27 5 46 10 42 17 -10 72 119 81 190 7 55 14 73 38 99 37 38 94
143 117 215 20 63 25 155 9 171 -9 9 -10 4 -7 -17 l5 -28 -17 23 c-13 18 -20
20 -36 11 -22 -11 -59 -88 -59 -120 0 -10 -4 -19 -10 -19 -12 0 -4 48 18 112
12 35 22 48 41 54 18 4 21 8 11 12 -27 9 -30 25 -30 165 0 82 -4 137 -10 137
-5 0 -7 -13 -3 -30 4 -20 2 -30 -7 -30 -8 0 -11 26 -9 98 2 53 0 103 -4 109
-5 7 -10 22 -12 33 -2 11 -9 28 -15 37 -11 17 -11 17 -6 0 3 -11 2 -15 -4 -12
-6 3 -8 16 -5 28 4 13 1 34 -5 47 l-11 25 5 -24 c8 -38 -10 -12 -38 59 -39 95
-40 99 -12 55 32 -49 33 -41 4 20 -20 40 -21 48 -9 67 13 21 10 25 -30 61 -24
22 -43 45 -41 52 1 8 -14 15 -43 20 -25 3 -70 15 -101 25 -30 11 -80 24 -111
30 -64 11 -83 24 -65 42 25 25 5 38 -28 19z m-35 -31 c-11 -5 -42 -8 -70 -8
l-50 1 45 7 c25 4 56 7 70 8 23 1 23 0 5 -8z m140 -50 c21 -6 12 -7 -27 -3
-39 4 -58 2 -58 -5 0 -6 -9 -9 -19 -7 -11 2 -41 7 -68 11 -38 6 -43 9 -24 14
31 7 157 1 196 -10z m-405 5 c0 -2 -13 -11 -30 -20 -38 -19 -40 -11 -2 9 31
17 32 18 32 11z m525 -35 c13 -5 14 -9 5 -9 -8 0 -24 4 -35 9 -13 5 -14 9 -5
9 8 0 24 -4 35 -9z m-615 -24 c0 -2 -7 -7 -16 -10 -8 -3 -12 -2 -9 4 6 10 25
14 25 6z m716 -38 c19 -23 19 -23 -1 -7 -11 9 -27 19 -35 22 -13 5 -13 6 1 6
9 1 24 -9 35 -21z m94 -60 c0 -18 -29 -6 -45 18 l-17 26 31 -18 c17 -10 31
-22 31 -26z m-38 -29 c9 -16 16 -29 14 -29 -1 0 -17 15 -35 34 -25 26 -29 34
-15 30 11 -3 27 -18 36 -35z m-745 -335 c-3 -3 -12 -4 -19 -1 -8 3 -5 6 6 6
11 1 17 -2 13 -5z m118 -9 c56 -20 109 -20 101 1 -4 11 -1 14 12 10 9 -3 29
-8 43 -11 34 -8 53 -44 47 -89 -2 -20 -1 -36 4 -36 16 0 39 63 36 97 l-3 35
48 2 c26 1 47 -2 47 -7 0 -5 18 -7 41 -4 22 3 70 1 106 -4 51 -7 70 -15 85
-34 11 -14 26 -25 33 -25 8 0 12 -6 9 -14 -3 -7 2 -16 10 -19 9 -4 16 -12 16
-19 0 -7 9 -24 20 -38 22 -28 27 -48 8 -32 -10 8 -13 -16 -13 -116 0 -107 3
-131 19 -154 10 -15 22 -26 26 -23 5 3 11 1 14 -4 11 -17 -23 -5 -46 16 -13
11 -30 21 -38 21 -56 3 -125 14 -128 21 -2 5 -22 4 -45 -1 -23 -5 -57 -11 -75
-13 -18 -2 -39 -8 -47 -15 -11 -9 -12 -7 -8 8 3 14 -1 22 -16 27 -15 5 -30 -2
-55 -27 -33 -32 -58 -88 -40 -88 5 0 18 -19 29 -43 11 -23 23 -45 28 -48 5 -3
2 -12 -6 -20 -10 -11 -12 -28 -7 -64 8 -65 26 -97 93 -168 30 -33 63 -80 75
-110 22 -56 35 -194 20 -221 -9 -16 -11 -15 -89 60 -5 5 -22 23 -37 39 -15 17
-36 35 -46 40 -17 10 -17 11 0 41 9 17 15 38 11 47 -8 21 -55 22 -81 2 -16
-12 -23 -10 -62 18 -36 26 -43 36 -39 57 5 23 4 23 -8 8 -17 -21 -37 -23 -37
-4 0 8 -6 13 -12 13 -7 -1 -30 7 -50 17 -35 18 -38 18 -62 2 -14 -9 -26 -23
-26 -30 0 -8 -7 -16 -15 -20 -9 -3 -15 -18 -15 -36 0 -34 66 -114 103 -126 12
-4 32 -18 45 -32 19 -19 21 -27 10 -33 -18 -12 -58 -11 -58 1 0 6 -8 5 -20 -2
-11 -7 -20 -19 -20 -27 0 -11 3 -11 15 -1 12 10 15 10 15 -4 0 -17 35 -23 44
-7 3 5 22 11 41 13 29 3 40 -1 63 -25 l27 -29 -63 4 c-34 1 -62 0 -62 -4 0
-16 67 -38 114 -38 44 0 56 -5 87 -34 26 -25 38 -47 43 -77 9 -57 -4 -68 -49
-43 -34 18 -34 19 -13 24 17 4 8 9 -36 19 -32 7 -81 26 -108 42 -38 22 -61 29
-103 29 -65 0 -68 4 -122 136 -44 112 -73 147 -39 49 36 -105 74 -185 91 -191
20 -8 19 -17 -5 -31 -17 -11 -24 -8 -55 24 -19 20 -35 39 -35 43 0 4 -10 18
-23 32 -56 60 -127 178 -127 210 0 18 -7 65 -15 103 -9 39 -18 106 -20 150 -3
44 -8 90 -10 101 -3 12 2 39 9 60 10 26 15 32 16 19 1 -16 4 -14 12 8 7 20 27
36 71 58 70 33 119 37 209 13 33 -8 82 -16 109 -16 54 -2 64 -17 27 -42 -19
-13 -24 -14 -37 -2 -9 8 -31 17 -48 21 -18 3 -33 10 -33 15 0 15 -110 22 -160
10 -50 -12 -97 -50 -85 -70 5 -8 14 -5 29 9 23 21 123 52 166 50 14 -1 -2 -6
-35 -13 -63 -13 -145 -50 -145 -66 0 -5 4 -11 10 -15 5 -3 7 -12 4 -20 -4 -10
3 -18 21 -25 33 -13 185 -13 205 0 10 6 -9 7 -55 3 -38 -3 -67 -3 -63 1 11 13
142 25 154 15 7 -6 16 -4 24 6 9 11 16 12 26 4 10 -8 14 -3 19 24 4 20 18 45
31 58 34 32 31 68 -10 112 -32 35 -66 49 -66 26 0 -5 -5 -7 -12 -3 -19 12
-128 15 -128 3 0 -6 -25 -8 -66 -6 -40 2 -74 -1 -90 -9 -14 -7 -22 -9 -19 -4
14 23 -15 8 -35 -17 l-21 -28 7 44 c3 24 6 69 7 100 0 56 1 58 26 53 22 -5 24
-3 13 10 -6 8 -11 26 -11 39 1 13 -6 44 -15 68 -9 24 -16 63 -16 86 0 39 3 44
38 61 30 15 57 17 151 15 74 -2 111 1 107 7 -4 6 2 8 16 4 17 -4 20 -2 15 11
-4 10 -5 17 -4 17 1 0 20 -7 42 -15z m792 -382 c-2 -16 -4 -3 -4 27 0 30 2 43
4 28 2 -16 2 -40 0 -55z m-1257 -105 c6 -18 13 -67 15 -108 l4 -75 -9 67 c-13
105 -68 163 -95 100 -11 -25 -25 -29 -25 -6 0 36 20 54 59 54 35 0 40 -3 51
-32z m956 -25 c-3 -4 -17 -8 -29 -10 -17 -2 -19 -1 -7 7 17 11 47 14 36 3z
m119 -19 c22 -8 47 -16 55 -19 8 -2 24 -7 34 -11 16 -6 18 -4 13 9 -3 9 -2 17
3 17 12 0 22 -78 14 -110 -3 -14 -7 -87 -9 -162 -3 -92 -8 -146 -18 -165 -8
-15 -17 -41 -21 -58 -23 -101 -46 -101 -46 0 0 99 -15 133 -83 198 -47 46 -57
61 -46 68 8 5 21 9 29 9 8 0 26 7 39 14 23 13 21 14 -30 13 -30 0 -57 -5 -60
-10 -8 -12 -51 11 -44 24 4 5 19 9 34 9 32 0 132 28 146 41 5 6 4 9 -5 9 -11
0 -11 4 2 17 16 15 16 18 -8 40 -28 26 -27 27 10 13 15 -5 26 -6 26 0 0 17
-64 54 -104 61 l-41 6 35 1 c19 1 53 -6 75 -14z m255 -73 c-5 -30 -16 -61 -22
-69 -7 -8 -24 -42 -38 -75 -25 -60 -54 -91 -43 -45 3 13 9 28 13 33 4 6 13 42
20 81 9 59 16 74 36 84 31 17 34 61 4 53 -11 -3 -20 -10 -20 -16 0 -6 -3 -7
-7 -4 -3 4 2 16 12 27 18 20 19 20 37 2 16 -16 17 -24 8 -71z m-1367 72 c2 -5
7 -20 11 -36 6 -25 5 -27 -13 -15 -31 19 -39 -1 -10 -25 19 -16 28 -35 33 -72
3 -27 17 -65 31 -85 28 -41 34 -83 10 -74 -40 16 -116 230 -101 288 6 24 30
35 39 19z m1051 -24 c13 -6 3 -6 -29 -1 -69 10 -150 4 -192 -13 -33 -14 -38
-14 -55 1 -26 24 -22 36 10 30 15 -3 50 -2 77 2 50 8 151 -2 189 -19z m-103
-69 c11 0 30 5 42 12 20 10 21 10 8 -5 -24 -30 -92 -16 -91 18 0 5 5 2 11 -7
5 -10 19 -18 30 -18z m-616 10 c8 -13 58 -13 72 1 6 6 17 9 25 6 18 -6 -36
-27 -71 -27 -16 0 -34 7 -41 15 -8 9 -9 15 -2 15 6 0 14 -4 17 -10z m-58 -6
c-3 -3 -12 -4 -19 -1 -8 3 -5 6 6 6 11 1 17 -2 13 -5z m578 -43 c3 -11 12 -22
20 -25 18 -6 20 -36 3 -36 -19 0 -58 42 -58 62 0 24 27 23 35 -1z m163 -18
c-21 -2 -55 -2 -75 0 -21 2 -4 4 37 4 41 0 58 -2 38 -4z m-519 -219 c50 -44
19 -72 -40 -37 -31 19 -36 32 -17 51 17 17 24 15 57 -14z m78 -36 c-3 -12 58
-67 75 -68 20 0 83 -55 168 -144 138 -144 157 -163 170 -168 14 -4 29 -70 30
-129 0 -26 7 -66 16 -90 8 -24 20 -82 25 -129 13 -111 47 -252 65 -266 8 -6
14 -25 14 -42 0 -17 5 -44 12 -59 31 -75 90 -198 106 -221 10 -15 29 -51 41
-81 20 -48 21 -59 11 -96 -10 -36 -19 -46 -58 -66 -29 -14 -70 -24 -107 -27
-76 -4 -118 19 -145 82 -10 24 -30 63 -45 86 l-27 43 36 -6 c51 -8 45 8 -7 21
-41 11 -73 34 -77 57 -1 6 -21 26 -44 45 -39 33 -59 55 -81 91 -5 9 -23 36
-39 60 -46 69 -104 183 -99 196 2 6 -5 14 -17 18 -17 5 -19 9 -9 21 6 8 10 17
7 19 -3 3 -10 -1 -17 -9 -10 -11 -18 -12 -44 -2 -35 12 -42 18 -75 60 -23 29
-30 20 -12 -15 13 -23 -2 -26 -20 -4 -7 9 -19 14 -27 11 -9 -4 -13 3 -13 20 0
36 17 63 48 76 34 15 173 18 190 5 21 -17 35 7 28 47 -8 44 -30 49 -24 6 6
-38 -7 -38 -27 0 -9 18 -32 37 -61 49 -25 11 -62 33 -82 49 -20 15 -50 33 -67
40 l-30 12 22 -19 23 -19 -26 -17 c-50 -32 -118 2 -82 42 9 10 18 24 20 32 2
8 26 26 54 41 27 14 61 34 74 43 34 23 43 22 94 -15 70 -52 188 -115 226 -122
31 -6 33 -5 18 7 -23 18 -23 23 1 30 16 4 17 11 11 50 -8 57 -46 112 -119 177
-31 27 -79 71 -107 97 -27 27 -63 55 -79 63 -38 18 -84 69 -85 93 0 21 13 22
29 3 7 -8 26 -18 43 -21 26 -6 35 -2 60 24 31 33 42 39 35 19z m202 -71 c-2
-1 -11 -8 -20 -15 -13 -10 -19 -9 -29 3 -11 13 -8 15 20 15 19 0 31 -1 29 -3z
m-1041 -449 c16 -35 39 -72 51 -82 11 -11 21 -25 21 -32 0 -7 17 -25 38 -41
20 -15 46 -36 56 -46 11 -11 49 -33 85 -50 55 -26 77 -31 136 -30 59 1 83 7
158 41 48 23 87 45 87 51 0 6 4 11 9 11 6 0 3 -12 -5 -27 -26 -51 -18 -89 27
-138 23 -25 52 -48 65 -51 13 -4 24 -9 24 -13 0 -13 -34 -57 -84 -109 l-51
-53 -250 7 -250 6 -23 26 c-13 15 -34 41 -48 57 -13 17 -40 50 -59 74 -66 81
-70 94 -42 155 25 55 26 59 12 234 -4 44 -2 72 4 72 5 0 23 -28 39 -62z m572
28 c0 -3 -4 -8 -10 -11 -5 -3 -10 -1 -10 4 0 6 5 11 10 11 6 0 10 -2 10 -4z
m174 -168 c6 -27 5 -28 -35 -28 l-41 0 29 34 c30 36 37 35 47 -6z m106 -17 c0
-3 -15 -7 -34 -8 -27 -1 -35 3 -40 20 -12 44 -6 48 34 21 22 -15 40 -29 40
-33z m-432 -431 c97 -1 122 -4 122 -15 0 -8 -18 -19 -42 -26 -24 -6 -61 -20
-83 -32 -55 -29 -81 -31 -113 -9 -15 10 -44 27 -65 37 -21 11 -45 28 -54 37
-15 16 -12 17 48 13 35 -2 119 -5 187 -5z m-120 -196 c1 -14 4 -30 8 -35 8
-13 42 -11 47 4 2 6 6 -3 9 -20 5 -33 4 -33 -39 -33 -37 0 -43 -3 -43 -20 0
-41 74 -46 90 -6 6 15 9 16 9 5 2 -39 -66 -56 -97 -25 -13 13 -14 22 -6 44 6
16 10 42 8 58 -3 27 1 54 9 54 1 0 4 -12 5 -26z m33 -11 c-9 -16 -10 -14 -11
12 0 21 3 26 11 18 8 -8 8 -16 0 -30z m36 5 c-3 -8 -6 -5 -6 6 -1 11 2 17 5
13 3 -3 4 -12 1 -19z m-36 -101 c-7 -7 -14 -8 -21 -1 -6 6 -2 10 12 11 16 2
18 -1 9 -10z"/>
<path d="M2514 2618 c3 -20 16 -38 28 -38 6 0 5 7 -3 17 -8 9 -13 19 -11 22 2
3 -1 7 -6 9 -6 2 -10 -3 -8 -10z"/>
<path d="M2554 2592 c9 -11 34 -25 55 -32 48 -15 79 -8 36 9 -16 7 -43 19 -59
27 -40 19 -52 18 -32 -4z"/>
<path d="M2743 2586 c-48 -22 -58 -42 -15 -32 15 4 38 8 52 9 16 2 24 8 22 17
-6 26 -16 27 -59 6z"/>
<path d="M2980 2490 c0 -25 3 -29 22 -27 29 5 35 27 12 44 -27 20 -34 16 -34
-17z"/>
<path d="M3130 2393 c0 -4 5 -15 10 -23 8 -13 10 -13 10 2 0 9 -4 20 -10 23
-5 3 -10 3 -10 -2z"/>
<path d="M2510 2340 c0 -5 5 -10 11 -10 5 0 7 5 4 10 -3 6 -8 10 -11 10 -2 0
-4 -4 -4 -10z"/>
<path d="M3140 2329 c0 -5 5 -7 10 -4 6 3 10 8 10 11 0 2 -4 4 -10 4 -5 0 -10
-5 -10 -11z"/>
<path d="M3231 1940 c0 -8 6 -26 15 -40 l15 -25 -7 25 c-3 14 -10 32 -15 40
-7 13 -8 13 -8 0z"/>
<path d="M2791 1844 c0 -11 3 -14 6 -6 3 7 2 16 -1 19 -3 4 -6 -2 -5 -13z"/>
<path d="M3261 1824 c0 -11 3 -14 6 -6 3 7 2 16 -1 19 -3 4 -6 -2 -5 -13z"/>
<path d="M3120 1801 c0 -5 9 -20 20 -34 11 -14 20 -39 20 -56 0 -29 -1 -30
-26 -20 -40 15 -42 1 -3 -15 28 -12 38 -25 59 -78 33 -83 60 -136 60 -116 0
19 -24 89 -50 145 -11 24 -20 59 -20 78 0 41 -22 90 -45 98 -8 4 -15 3 -15 -2z"/>
<path d="M2960 1591 c38 -20 111 -87 129 -117 9 -17 10 -17 11 -2 0 16 -65
100 -98 126 -9 6 -30 12 -46 12 l-31 0 35 -19z"/>
<path d="M3365 1505 c21 -52 35 -126 35 -190 l1 -70 16 30 16 30 11 -25 c10
-24 27 -42 34 -36 5 6 -23 86 -30 86 -5 0 -8 -6 -8 -12 0 -27 -20 18 -20 45 0
44 -29 134 -47 149 -15 11 -16 11 -8 -7z"/>
<path d="M3295 1353 c15 -32 25 -42 25 -24 0 5 -9 19 -20 32 l-21 24 16 -32z"/>
<path d="M3244 1051 c8 -12 88 -31 132 -31 57 0 30 17 -46 29 -79 13 -93 13
-86 2z"/>
<path d="M2318 3853 c7 -3 16 -2 19 1 4 3 -2 6 -13 5 -11 0 -14 -3 -6 -6z"/>
<path d="M2268 3843 c6 -2 18 -2 25 0 6 3 1 5 -13 5 -14 0 -19 -2 -12 -5z"/>
<path d="M2174 3814 c-19 -15 -19 -15 1 -6 11 5 27 12 35 15 13 5 13 6 -1 6
-8 1 -24 -6 -35 -15z"/>
<path d="M2120 3790 c-9 -6 -10 -10 -3 -10 6 0 15 5 18 10 8 12 4 12 -15 0z"/>
<path d="M1975 3640 c-22 -25 -35 -26 -36 -2 0 10 -2 12 -6 4 -8 -20 5 -42 21
-36 8 3 22 17 31 30 19 29 15 31 -10 4z"/>
<path d="M1906 3626 c-3 -14 -14 -27 -25 -31 -41 -13 -56 -44 -56 -115 0 -37
3 -63 7 -57 4 7 8 20 8 30 0 9 5 17 10 17 7 0 7 6 0 19 -19 37 -12 65 25 90
32 21 53 56 42 67 -2 3 -7 -6 -11 -20z"/>
<path d="M1868 3559 c-23 -13 -23 -31 2 -60 l19 -24 1 48 c0 26 -1 47 -2 47
-2 0 -11 -5 -20 -11z"/>
<path d="M1801 3324 c0 -11 3 -14 6 -6 3 7 2 16 -1 19 -3 4 -6 -2 -5 -13z"/>
<path d="M3623 3230 c0 -25 2 -35 4 -22 2 12 2 32 0 45 -2 12 -4 2 -4 -23z"/>
<path d="M1745 3200 c-3 -5 -1 -10 4 -10 6 0 11 5 11 10 0 6 -2 10 -4 10 -3 0
-8 -4 -11 -10z"/>
<path d="M1746 3158 c4 -6 11 -25 15 -42 7 -29 7 -29 8 12 1 32 -3 42 -15 42
-9 0 -12 -5 -8 -12z"/>
<path d="M1762 3065 c0 -11 3 -29 8 -40 11 -25 11 1 0 35 -6 20 -8 21 -8 5z"/>
<path d="M1783 2927 l2 -59 -47 -2 c-34 -1 -52 -7 -63 -21 -19 -27 -19 -110 1
-169 21 -61 28 -55 9 9 -19 61 -19 139 -2 154 8 6 28 14 45 17 25 5 33 2 47
-20 20 -30 45 -150 45 -216 0 -68 -16 -37 -39 73 -11 54 -25 105 -32 113 -19
23 -52 13 -63 -18 -12 -34 -2 -46 25 -30 17 11 21 9 29 -13 13 -34 13 -35 -5
-35 -20 0 -19 -7 5 -32 11 -12 20 -34 20 -50 0 -16 12 -41 29 -60 39 -45 51
-72 53 -113 1 -19 4 -32 8 -30 4 3 10 -9 14 -27 3 -17 8 -29 10 -27 3 2 -2 40
-9 84 -8 44 -19 125 -24 180 -6 55 -22 156 -36 225 -20 103 -24 115 -22 67z"/>
<path d="M2037 2638 c12 -6 27 -22 33 -37 8 -19 9 -20 6 -4 -3 16 2 23 21 28
33 8 28 11 -32 19 -41 5 -46 4 -28 -6z"/>
<path d="M1728 2562 c15 -33 28 -56 30 -52 4 10 -37 98 -49 105 -4 3 4 -21 19
-53z"/>
<path d="M2100 2615 c-5 -21 2 -150 10 -169 7 -16 9 -12 8 19 0 49 -14 164
-18 150z"/>
<path d="M2083 2485 c0 -22 2 -30 4 -17 2 12 2 30 0 40 -3 9 -5 -1 -4 -23z"/>
<path d="M1760 2482 c0 -14 37 -58 43 -52 3 3 -6 18 -19 33 -13 15 -24 24 -24
19z"/>
<path d="M2071 2392 c-1 -49 22 -68 45 -37 17 22 10 35 -15 28 -15 -4 -20 1
-24 24 -3 21 -4 17 -6 -15z"/>
<path d="M1891 2284 c0 -11 3 -14 6 -6 3 7 2 16 -1 19 -3 4 -6 -2 -5 -13z"/>
<path d="M1814 2099 c-19 -22 -19 -22 4 -10 12 6 22 16 22 21 0 15 -5 12 -26
-11z"/>
<path d="M3471 2064 c0 -11 3 -14 6 -6 3 7 2 16 -1 19 -3 4 -6 -2 -5 -13z"/>
<path d="M3482 2009 c6 -16 12 -28 14 -26 5 5 -13 57 -20 57 -3 0 0 -14 6 -31z"/>
<path d="M1430 1283 c0 -13 60 -73 72 -73 6 0 30 -17 53 -37 77 -69 140 -120
165 -133 14 -7 30 -20 37 -29 6 -9 14 -13 18 -10 3 4 -11 20 -32 38 -34 28
-76 64 -138 121 -123 111 -175 148 -175 123z"/>
<path d="M2037 1168 c8 -46 13 -48 13 -5 0 21 -4 37 -10 37 -5 0 -7 -14 -3
-32z"/>
<path d="M1991 1158 c-1 -15 4 -30 9 -33 12 -7 12 12 0 40 -8 18 -9 17 -9 -7z"/>
<path d="M2930 1121 c0 -11 4 -22 9 -25 4 -3 6 6 3 19 -5 30 -12 33 -12 6z"/>
<path d="M2970 1111 c0 -13 29 -35 37 -28 7 8 -15 37 -28 37 -5 0 -9 -4 -9 -9z"/>
<path d="M2086 1069 c-9 -45 -8 -65 3 -53 13 13 24 84 13 84 -5 0 -12 -14 -16
-31z"/>
<path d="M2760 1093 c0 -5 7 -18 15 -29 13 -18 14 -18 8 4 -5 22 -23 41 -23
25z"/>
<path d="M2126 1074 c-19 -19 -23 -134 -5 -134 8 0 10 18 7 55 -3 36 0 59 7
65 23 19 31 -14 33 -140 2 -69 7 -159 12 -200 5 -41 11 -114 13 -161 4 -80 3
-86 -14 -82 -10 3 -18 8 -17 12 1 3 -2 13 -5 21 -4 8 -11 42 -17 75 -9 59 -9
58 -5 -25 5 -114 28 -185 61 -185 28 0 34 81 17 265 -7 85 -16 202 -18 260 -8
161 -13 190 -35 190 -10 0 -26 -7 -34 -16z"/>
<path d="M2810 1079 c0 -8 7 -24 15 -35 11 -14 14 -15 14 -4 0 8 -6 24 -14 34
-11 15 -15 16 -15 5z"/>
<path d="M2856 1057 c3 -10 9 -15 12 -12 3 3 0 11 -7 18 -10 9 -11 8 -5 -6z"/>
<path d="M2696 1038 c-8 -31 -8 -253 0 -245 4 4 6 45 5 92 -2 99 12 158 37
153 14 -3 17 -15 16 -68 -1 -86 -5 -919 -5 -947 1 -13 6 -23 11 -23 7 0 9 178
8 527 l-3 528 -31 3 c-26 3 -33 -1 -38 -20z"/>
<path d="M2780 1028 c0 -7 4 -19 9 -27 11 -17 23 1 15 23 -7 19 -24 21 -24 4z"/>
<path d="M2111 883 c0 -10 4 -36 8 -58 9 -40 9 -39 10 18 0 32 -3 57 -9 57 -5
0 -10 -8 -9 -17z"/>
<path d="M2696 638 c-8 -128 -11 -627 -3 -635 4 -3 7 20 8 53 1 135 4 674 3
674 -1 0 -4 -42 -8 -92z"/>
<path d="M2120 691 c0 -17 5 -33 10 -36 6 -4 10 8 10 29 0 20 -4 36 -10 36 -5
0 -10 -13 -10 -29z"/>
<path d="M451 124 c0 -11 3 -14 6 -6 3 7 2 16 -1 19 -3 4 -6 -2 -5 -13z"/>
<path d="M442 65 c0 -16 2 -22 5 -12 2 9 2 23 0 30 -3 6 -5 -1 -5 -18z"/>
</g>
</svg>
