<?xml version="1.0" standalone="no"?>
<!DOCTYPE svg PUBLIC "-//W3C//DTD SVG 20010904//EN"
 "http://www.w3.org/TR/2001/REC-SVG-20010904/DTD/svg10.dtd">
<svg version="1.0" xmlns="http://www.w3.org/2000/svg"
 width="241.000000pt" height="241.000000pt" viewBox="0 0 241.000000 241.000000"
 preserveAspectRatio="xMidYMid meet">
<metadata>
Created by MrRobot
</metadata>
<g transform="translate(0.000000,241.000000) scale(0.100000,-0.100000)"
fill="#000000" stroke="none">
<path d="M1325 1731 c-335 -125 -620 -233 -632 -239 -28 -15 -43 -43 -43 -78
0 -26 234 -674 265 -735 10 -18 28 -32 53 -39 35 -11 65 -1 671 224 348 129
642 243 652 252 43 39 38 62 -96 426 -70 188 -134 355 -141 370 -18 34 -43 48
-86 47 -18 0 -307 -103 -643 -228z m518 61 c-10 -16 -94 -137 -186 -269 l-168
-240 -187 49 c-103 27 -244 63 -314 80 -71 18 -128 35 -128 38 0 5 978 369
993 370 5 0 1 -13 -10 -28z m251 -262 c58 -156 103 -286 101 -288 -4 -4 -496
146 -503 153 -2 2 63 98 144 214 81 116 149 209 150 208 2 -1 50 -131 108
-287z m-838 -292 c6 -7 -265 -448 -275 -448 -6 0 -211 550 -211 567 0 9 474
-107 486 -119z m631 -9 c128 -40 229 -76 225 -80 -9 -10 -1013 -382 -1017
-377 -2 3 256 423 268 435 3 3 37 -2 76 -12 38 -9 78 -14 88 -11 10 3 36 33
58 66 25 38 46 59 55 56 8 -2 120 -36 247 -77z"/>
<path d="M320 1149 c-73 -26 -97 -50 -82 -83 16 -37 40 -38 122 -8 67 24 75
31 78 55 7 59 -26 69 -118 36z"/>
<path d="M192 781 c-58 -23 -76 -43 -68 -75 9 -37 43 -42 112 -14 51 20 59 27
62 53 3 19 -2 33 -14 42 -22 16 -38 15 -92 -6z"/>
<path d="M539 679 c-124 -46 -153 -74 -113 -113 23 -23 42 -20 158 25 109 42
128 59 107 97 -17 32 -43 31 -152 -9z"/>
</g>
</svg>
