<?xml version="1.0" standalone="no"?>
<!DOCTYPE svg PUBLIC "-//W3C//DTD SVG 20010904//EN"
 "http://www.w3.org/TR/2001/REC-SVG-20010904/DTD/svg10.dtd">
<svg version="1.0" xmlns="http://www.w3.org/2000/svg"
 width="1280.000000pt" height="1280.000000pt" viewBox="0 0 1280.000000 1280.000000"
 preserveAspectRatio="xMidYMid meet">
<metadata>
Created by Mrrobot
</metadata>
<g transform="translate(0.000000,1280.000000) scale(0.100000,-0.100000)"
fill="#000000" stroke="none">
<path d="M0 6400 l0 -6400 6400 0 6400 0 0 6400 0 6400 -6400 0 -6400 0 0
-6400z m6790 4695 c1350 -2 2475 -6 2501 -10 37 -6 50 -14 70 -43 l24 -36 2
-3850 c2 -2118 0 -3870 -3 -3893 -3 -29 -15 -51 -36 -72 l-32 -31 -2877 0
c-2712 0 -2879 1 -2908 17 -16 10 -39 36 -50 59 l-21 41 2 3869 c3 3851 3
3869 23 3896 11 15 43 36 70 47 48 20 63 21 415 15 201 -3 1470 -7 2820 -9z
m72 -8342 c26 -30 30 -60 13 -93 -14 -27 -20 -30 -63 -30 -59 0 -71 8 -78 51
-8 50 25 89 75 89 24 0 44 -7 53 -17z m-2724 -39 c19 -6 23 -12 20 -43 l-3
-36 -85 -5 c-112 -8 -148 -32 -133 -90 5 -17 14 -20 64 -20 60 0 79 -13 79
-55 0 -19 -44 -38 -89 -36 -60 1 -61 -1 -61 -224 0 -219 1 -215 -55 -215 -38
0 -49 64 -42 253 6 177 5 179 -51 192 -39 8 -51 39 -26 66 9 10 27 19 40 19
27 0 41 22 50 78 7 46 54 98 100 112 34 10 159 12 192 4z m4075 -36 c10 -8 19
-35 23 -73 4 -33 11 -66 17 -72 6 -9 40 -13 101 -13 80 0 93 -2 103 -20 13
-20 8 -49 -11 -62 -6 -4 -48 -8 -94 -8 -59 0 -88 -4 -98 -14 -18 -19 -20 -272
-2 -311 10 -23 16 -25 75 -25 67 0 75 4 106 53 37 58 102 9 77 -59 -27 -73
-102 -103 -224 -89 -64 6 -116 35 -116 63 0 7 -4 12 -10 12 -6 0 -10 61 -10
164 0 90 -3 171 -6 180 -3 9 -24 21 -46 26 -44 13 -56 31 -40 66 9 19 19 24
46 24 39 0 46 14 46 97 0 39 4 55 18 62 22 13 25 13 45 -1z m-3372 -185 c27
-20 39 -35 39 -53 0 -52 -36 -63 -95 -30 -28 16 -54 20 -128 20 -92 0 -117 -8
-117 -37 0 -12 95 -63 117 -63 6 0 16 -7 23 -15 7 -8 20 -15 30 -15 9 0 37
-11 61 -25 24 -14 51 -28 59 -32 25 -12 50 -37 50 -50 0 -7 5 -22 12 -33 10
-15 10 -29 0 -66 -16 -58 -49 -93 -99 -105 -48 -11 -227 -11 -275 0 -52 12
-90 51 -86 87 2 24 8 29 34 32 19 2 38 -3 47 -12 12 -13 41 -16 141 -16 111 0
126 2 135 18 13 24 3 62 -15 62 -8 0 -14 4 -14 9 0 5 -10 13 -22 17 -13 3 -59
24 -103 44 -44 21 -90 41 -102 45 -13 3 -23 11 -23 16 0 5 -6 9 -13 9 -25 0
-57 57 -57 102 1 47 15 72 57 100 24 15 49 18 166 18 135 0 140 -1 178 -27z
m668 10 c17 -10 31 -21 31 -25 0 -5 5 -8 10 -8 12 0 40 -29 58 -58 8 -15 12
-67 12 -155 0 -153 -8 -178 -70 -227 -48 -38 -87 -50 -165 -50 -104 1 -141 16
-206 84 -26 28 -31 64 -27 218 3 152 4 153 86 208 43 28 51 30 143 30 74 0
105 -4 128 -17z m824 -4 c19 -26 11 -56 -16 -63 -12 -3 -65 -6 -118 -6 -96 0
-97 0 -155 -40 -32 -22 -62 -48 -66 -57 -11 -28 -9 -140 3 -166 6 -13 28 -34
50 -47 21 -14 39 -28 39 -32 0 -5 53 -8 118 -8 129 -1 152 -9 152 -54 0 -37
-30 -46 -154 -46 -134 0 -162 10 -242 88 -7 6 -17 12 -22 12 -4 0 -18 20 -30
44 -17 34 -22 61 -22 126 0 101 14 134 84 195 80 71 86 73 233 74 123 1 133 0
146 -20z m537 2 c6 -12 10 -96 10 -205 0 -101 3 -191 6 -200 4 -11 19 -16 52
-16 73 0 109 -50 60 -84 -18 -13 -52 -16 -160 -16 -161 0 -188 7 -188 49 0 38
23 51 90 51 l50 0 -2 167 -3 167 -30 8 c-16 4 -47 10 -67 13 -33 5 -38 9 -38
33 0 45 16 52 117 52 81 0 94 -2 103 -19z m803 7 c12 -6 42 -31 67 -54 l45
-44 3 -97 c1 -54 -2 -105 -7 -113 -8 -12 -43 -16 -178 -19 -164 -3 -182 -7
-183 -37 0 -6 11 -23 25 -38 24 -26 25 -26 168 -26 129 0 146 -2 161 -19 24
-27 17 -64 -14 -72 -39 -11 -271 -10 -310 1 -20 5 -55 30 -80 55 l-45 46 -3
146 c-4 151 1 175 41 215 9 10 21 18 26 18 5 0 11 3 13 8 2 4 14 15 28 24 30
20 208 25 243 6z m1179 -5 c13 -12 18 -31 18 -75 0 -32 4 -58 10 -58 6 0 10
-5 10 -11 0 -11 13 -42 61 -145 16 -33 29 -65 29 -71 0 -6 9 -13 20 -16 20 -5
29 11 91 153 11 25 27 58 34 73 8 16 15 50 15 76 0 59 22 93 58 89 60 -7 59
-117 -1 -236 -15 -30 -27 -60 -27 -68 0 -8 -4 -14 -9 -14 -5 0 -13 -10 -16
-22 -4 -13 -17 -45 -30 -73 -12 -27 -33 -72 -45 -100 -13 -27 -33 -73 -46
-102 -13 -28 -24 -54 -24 -58 0 -3 -5 -11 -10 -18 -6 -7 -17 -21 -25 -32 -11
-17 -25 -20 -90 -20 -64 0 -79 3 -91 19 -12 17 -11 50 1 64 2 2 28 7 59 11 31
4 59 10 62 13 3 4 19 34 34 67 29 61 29 61 9 74 -22 13 -59 77 -59 102 0 8 -4
15 -10 15 -5 0 -10 6 -10 14 0 8 -13 41 -30 74 -16 34 -30 68 -30 76 0 9 -4
16 -9 16 -11 0 -31 78 -31 119 0 73 39 103 82 64z"/>
<path d="M3740 10818 c-11 -12 -20 -29 -21 -37 -4 -86 -6 -1126 -2 -1142 5
-20 11 -16 60 36 29 32 53 60 53 62 0 2 36 40 80 85 44 44 80 85 80 89 0 5 7
9 15 9 8 0 15 4 15 8 0 5 46 47 101 93 56 46 107 89 113 94 6 6 28 21 48 35
21 14 38 28 38 33 0 4 5 7 12 7 6 0 21 9 32 19 12 11 32 26 46 33 14 8 51 30
82 51 31 20 61 37 67 37 5 0 16 6 23 13 18 17 244 127 261 127 8 0 20 7 27 15
7 8 22 15 34 15 12 0 31 7 42 15 10 8 28 15 39 15 12 0 25 4 30 9 6 5 37 16
70 26 33 9 77 23 98 31 20 8 45 14 53 14 9 0 30 6 47 14 18 8 48 17 67 20 19
3 69 12 110 21 83 17 144 27 270 44 47 7 114 17 150 23 99 16 872 22 1005 8
61 -7 148 -15 195 -19 79 -7 149 -18 260 -41 25 -5 65 -12 90 -16 25 -3 50
-10 55 -14 6 -4 28 -10 50 -13 22 -2 54 -9 70 -15 17 -6 57 -19 90 -28 80 -22
146 -43 170 -53 11 -5 40 -16 65 -26 93 -35 263 -113 328 -149 13 -8 29 -19
35 -25 6 -6 19 -11 29 -11 10 0 18 -3 18 -8 0 -4 17 -16 38 -27 20 -11 65 -39
100 -62 35 -24 67 -43 72 -43 4 0 10 -3 12 -8 2 -4 23 -23 48 -42 25 -19 51
-39 58 -45 7 -5 25 -21 41 -35 15 -14 40 -36 56 -48 66 -52 222 -210 318 -322
21 -24 47 -50 59 -58 l21 -15 -8 444 c-5 329 -4 469 5 541 11 88 11 102 -6
148 -10 28 -27 58 -37 68 -18 16 -183 17 -2688 20 l-2668 2 -21 -22z"/>
<path d="M3736 9131 c-15 -16 -20 -41 -24 -116 -7 -145 21 -201 132 -259 27
-14 57 -26 67 -26 23 0 49 -10 49 -20 0 -14 -67 -40 -102 -40 -55 -1 -112 -33
-132 -75 -22 -45 -15 -111 15 -149 19 -24 27 -25 117 -28 90 -3 97 -4 100 -24
2 -13 -4 -24 -15 -28 -53 -19 -179 -114 -198 -149 -10 -21 -15 -48 -13 -77 2
-38 7 -46 25 -48 13 -2 33 4 45 12 12 9 32 16 43 16 11 0 29 7 39 15 11 8 28
15 38 15 10 0 18 5 18 10 0 6 8 10 18 10 23 0 95 51 138 98 28 30 33 46 43
122 6 48 9 94 6 102 -3 8 -9 97 -13 199 -8 176 -9 187 -37 244 -57 116 -166
197 -281 210 -52 6 -61 5 -78 -14z"/>
<path d="M8978 9107 c-77 -53 -127 -119 -189 -247 -17 -36 -38 -78 -45 -93 -8
-16 -14 -37 -14 -47 0 -9 -7 -35 -16 -56 -13 -29 -17 -73 -18 -169 -1 -126 0
-131 26 -172 16 -23 40 -50 55 -60 16 -10 30 -20 33 -23 3 -4 12 -10 20 -13 8
-4 29 -16 45 -27 17 -11 37 -23 45 -27 8 -3 17 -9 20 -12 6 -7 123 -64 162
-79 14 -6 29 -8 33 -4 12 12 35 74 35 94 0 20 -24 63 -49 89 -25 24 -137 79
-164 79 -7 1 -23 10 -36 20 l-23 20 23 20 c21 18 33 20 87 15 82 -7 121 10
145 65 22 52 22 88 -3 124 -20 32 -87 65 -132 65 -35 1 -99 32 -95 45 2 6 14
12 28 14 13 2 33 7 44 12 11 5 37 16 58 26 42 19 82 64 92 107 4 15 11 30 16
33 16 10 10 160 -8 199 -16 34 -18 35 -72 35 -46 -1 -64 -6 -103 -33z"/>
<path d="M5010 9030 c-71 -10 -152 -30 -165 -40 -5 -4 -26 -11 -45 -15 -19 -4
-41 -11 -50 -15 -8 -4 -31 -14 -50 -23 -72 -31 -226 -109 -255 -127 -16 -11
-37 -23 -45 -27 -37 -17 -100 -62 -130 -91 -25 -26 -32 -41 -32 -75 -1 -53 15
-85 48 -93 28 -7 114 14 114 27 0 5 8 9 19 9 10 0 24 7 31 15 7 8 18 15 24 15
11 0 36 13 148 76 11 7 25 17 31 23 6 6 19 11 29 11 10 0 18 4 18 10 0 5 12
13 28 16 15 4 32 11 38 15 14 11 92 28 160 36 61 6 162 -16 244 -55 68 -31
102 -55 199 -136 25 -21 55 -45 66 -55 62 -51 145 -111 154 -111 6 0 11 -4 11
-9 0 -5 17 -20 38 -32 20 -13 39 -26 42 -30 3 -3 30 -21 60 -40 30 -18 57 -37
58 -41 2 -4 10 -8 18 -8 8 0 17 -7 20 -15 4 -8 13 -15 22 -15 8 0 23 -6 31
-13 44 -36 205 -57 233 -29 7 7 20 12 29 12 9 0 19 7 23 15 3 8 12 15 21 15 8
0 15 7 15 15 0 8 3 15 8 15 22 0 62 119 62 188 0 85 -42 127 -212 210 -68 34
-154 82 -192 107 -38 25 -72 45 -77 45 -4 0 -9 3 -11 8 -5 10 -66 52 -77 52
-5 0 -11 3 -13 8 -5 11 -126 72 -143 72 -8 0 -15 5 -15 10 0 6 -8 10 -17 10
-10 0 -31 7 -46 15 -15 8 -45 17 -65 21 -20 4 -42 11 -48 16 -16 12 -286 18
-354 8z"/>
<path d="M7649 9026 c-3 -3 -47 -10 -99 -16 -51 -6 -98 -14 -104 -19 -6 -5
-27 -12 -46 -16 -19 -4 -58 -18 -86 -31 -28 -13 -54 -24 -57 -24 -11 0 -112
-63 -115 -72 -2 -4 -10 -8 -17 -8 -8 0 -20 -6 -27 -12 -18 -16 -42 -32 -95
-59 -24 -13 -43 -26 -43 -30 0 -4 -11 -10 -25 -13 -14 -4 -25 -11 -25 -16 0
-6 -6 -10 -14 -10 -7 0 -19 -7 -26 -15 -7 -8 -21 -15 -31 -15 -11 0 -19 -4
-19 -10 0 -5 -12 -13 -27 -16 -15 -4 -38 -13 -52 -20 -14 -8 -31 -14 -37 -14
-6 0 -23 -11 -38 -25 -15 -14 -31 -25 -37 -25 -5 0 -9 -6 -9 -13 0 -8 -7 -29
-16 -47 -12 -24 -15 -50 -12 -102 3 -39 10 -73 15 -77 6 -3 13 -15 17 -27 9
-29 75 -94 96 -94 9 0 21 -5 27 -11 35 -35 234 5 291 59 7 6 17 12 22 12 7 0
129 78 140 90 3 3 21 16 40 30 36 25 81 64 155 135 24 22 49 45 58 50 8 6 45
31 82 58 36 26 72 47 80 47 8 0 15 4 15 10 0 5 12 13 28 16 15 4 32 10 37 15
6 4 33 16 60 26 62 22 335 27 357 6 6 -7 20 -13 29 -13 29 0 162 -71 246 -132
29 -21 56 -38 61 -38 5 0 23 -7 40 -16 88 -43 152 -18 152 61 0 40 -5 49 -62
107 -75 75 -114 106 -176 139 -26 13 -49 26 -52 29 -20 20 -197 84 -265 96
-22 4 -45 10 -50 14 -21 17 -373 50 -386 36z"/>
<path d="M4471 8163 c0 -7 -8 -13 -16 -13 -9 0 -18 -7 -21 -15 -4 -8 -11 -15
-16 -15 -20 0 -98 -85 -124 -135 -21 -42 -25 -62 -21 -101 5 -54 28 -124 39
-124 5 0 8 -5 8 -11 0 -13 50 -74 51 -62 0 4 4 46 9 93 14 146 62 319 93 341
5 4 7 17 4 30 -2 13 -5 18 -6 12z"/>
<path d="M8366 8141 c-5 -7 22 -51 44 -71 25 -24 70 -167 71 -227 1 -52 23
-156 35 -160 9 -2 44 64 44 84 0 6 7 24 15 39 20 40 20 167 0 188 -8 8 -15 19
-15 25 0 26 -74 78 -182 128 -4 2 -9 -1 -12 -6z"/>
<path d="M5200 8082 c0 -5 -17 -12 -37 -15 -46 -8 -183 -66 -183 -78 0 -5 -6
-9 -13 -9 -17 0 -117 -100 -117 -117 0 -7 -7 -16 -15 -19 -8 -4 -15 -14 -15
-24 0 -11 -4 -21 -9 -24 -5 -3 -19 -25 -31 -48 -43 -84 -113 -182 -186 -260
-31 -34 -15 -46 34 -25 59 24 142 47 171 47 15 0 33 6 39 13 19 18 450 17 512
-1 25 -7 70 -20 100 -29 81 -22 224 -76 228 -85 2 -4 11 -8 21 -8 9 0 26 -7
37 -15 18 -14 54 -20 54 -10 0 3 -11 23 -25 45 -14 22 -25 52 -25 66 0 30 38
85 85 124 63 52 75 71 75 116 0 23 -8 57 -17 75 -23 41 -154 179 -170 179 -7
0 -13 3 -13 8 0 4 -21 19 -47 32 -27 14 -50 27 -53 30 -3 3 -25 12 -50 19 -52
17 -350 27 -350 13z"/>
<path d="M7340 8078 c-157 -72 -142 -62 -250 -168 -85 -84 -104 -110 -113
-158 -9 -47 13 -92 64 -133 24 -19 52 -43 61 -54 25 -29 24 -120 -2 -170 -11
-21 -18 -40 -16 -42 3 -4 108 48 116 58 12 13 181 71 265 89 28 7 68 17 90 23
52 15 367 16 386 1 8 -6 40 -14 71 -18 32 -3 68 -10 80 -15 13 -5 50 -16 83
-26 33 -10 74 -23 90 -30 63 -27 75 -28 75 -7 0 12 -31 47 -76 88 -115 104
-143 135 -149 166 -4 15 -11 30 -16 33 -5 4 -9 17 -9 30 0 24 -25 78 -47 103
-7 7 -13 17 -13 20 0 20 -92 101 -145 127 -22 11 -42 23 -45 26 -3 4 -21 10
-40 14 -19 4 -41 11 -50 16 -57 31 -357 51 -410 27z"/>
<path d="M6581 7771 c-25 -154 -12 -319 33 -407 15 -28 148 -164 162 -164 6 0
97 -84 128 -118 12 -13 33 -37 47 -53 35 -39 77 -127 85 -178 4 -22 10 -41 14
-41 27 0 55 189 31 204 -5 3 -12 22 -15 41 -4 19 -11 35 -16 35 -6 0 -10 5
-10 11 0 15 -84 99 -98 99 -6 0 -15 6 -19 13 -8 12 -35 31 -63 44 -22 10 -86
69 -115 105 -23 29 -65 127 -80 184 -8 34 -15 100 -15 147 0 86 -19 147 -46
147 -6 0 -16 -31 -23 -69z"/>
<path d="M6252 7688 c-7 -7 -12 -27 -12 -45 0 -50 -52 -189 -79 -213 -3 -3
-13 -18 -21 -35 -26 -51 -175 -194 -257 -247 -23 -15 -55 -46 -70 -69 -25 -38
-28 -51 -28 -128 1 -116 44 -241 59 -168 3 12 7 33 10 47 40 201 82 275 187
333 22 12 49 27 60 33 40 22 109 95 137 144 37 63 56 177 47 281 -7 80 -11 89
-33 67z"/>
<path d="M8420 7102 c0 -21 6 -46 13 -57 32 -47 46 -212 26 -307 -31 -154
-146 -276 -303 -320 -87 -25 -360 -10 -401 22 -5 4 -25 11 -42 15 -18 3 -33
11 -33 16 0 5 -7 9 -15 9 -8 0 -31 9 -52 19 -35 18 -158 74 -228 105 -130 58
-231 79 -384 80 -105 1 -131 -2 -154 -16 -14 -10 -32 -18 -39 -18 -6 0 -49
-37 -94 -82 -99 -100 -100 -100 -150 -124 -29 -14 -61 -19 -124 -19 -74 0 -91
3 -135 28 -27 15 -70 45 -95 67 -25 22 -48 40 -52 40 -5 0 -8 5 -8 10 0 9 -29
40 -65 67 -5 5 -30 17 -54 28 -84 37 -339 20 -458 -31 -17 -8 -36 -14 -41 -14
-6 0 -23 -6 -39 -14 -15 -8 -59 -29 -98 -47 -38 -17 -92 -42 -118 -55 -27 -13
-55 -24 -63 -24 -8 0 -14 -4 -14 -9 0 -5 -17 -12 -37 -16 -21 -4 -40 -10 -43
-13 -13 -18 -153 -42 -240 -42 -132 0 -254 45 -335 122 -22 21 -43 38 -47 38
-5 0 -8 5 -8 10 0 6 -13 29 -30 52 -16 22 -30 48 -30 58 0 9 -5 21 -12 28 -14
14 -15 241 -1 251 19 12 25 92 8 117 -25 39 -84 33 -137 -13 -24 -21 -44 -41
-46 -45 -2 -5 -9 -8 -15 -8 -26 0 -218 -200 -240 -250 -4 -8 -18 -33 -32 -55
-13 -22 -24 -50 -25 -62 0 -13 -4 -23 -8 -23 -4 0 -14 -24 -22 -52 -28 -108
-12 -524 20 -548 4 -3 10 -22 14 -42 4 -21 11 -38 16 -38 6 0 10 -7 10 -16 0
-27 108 -154 131 -154 4 0 14 -6 21 -12 17 -17 94 -53 141 -67 20 -6 53 -16
72 -22 42 -12 105 -24 245 -46 124 -19 814 -30 834 -14 7 6 91 16 188 22 140
10 203 10 310 0 73 -6 137 -16 142 -22 6 -5 24 -9 42 -9 17 0 51 -7 75 -16 63
-24 480 -24 554 0 28 9 64 16 81 16 16 0 34 4 40 10 5 5 76 15 156 22 115 9
183 9 314 0 92 -7 173 -17 180 -22 16 -14 660 -7 784 8 167 20 397 76 420 101
3 4 23 15 45 26 86 43 179 158 226 280 45 117 45 455 -1 570 -33 85 -49 118
-84 175 -21 36 -62 89 -90 118 -28 29 -52 57 -54 62 -2 6 -8 10 -13 10 -6 0
-20 11 -33 25 -13 14 -26 25 -30 25 -4 0 -14 6 -21 13 -33 29 -72 54 -107 70
-16 6 -28 15 -28 19 0 4 -9 8 -20 8 -11 0 -20 5 -20 10 0 6 -9 10 -20 10 -16
0 -20 -7 -20 -38z"/>
<path d="M3716 5954 c-3 -9 -6 -571 -6 -1249 l0 -1233 26 -31 26 -31 817 0
c780 0 819 1 834 18 39 43 13 75 -228 277 -33 27 -80 69 -105 91 -25 23 -72
64 -105 91 -33 26 -71 58 -85 69 -14 12 -59 50 -100 85 -89 74 -189 171 -190
182 0 4 -11 18 -24 30 -65 61 -181 274 -230 422 -40 123 -44 137 -51 185 -3
25 -10 54 -14 65 -11 26 -31 134 -38 205 -3 30 -9 60 -14 65 -4 6 -11 31 -14
55 -7 53 -32 148 -46 172 -5 10 -9 26 -9 36 0 10 -7 27 -15 38 -8 10 -15 25
-15 32 0 15 -83 153 -114 190 -70 86 -260 252 -286 252 -4 0 -11 -7 -14 -16z"/>
<path d="M9107 5945 c-9 -8 -19 -15 -22 -15 -22 0 -215 -168 -215 -187 0 -3
-12 -22 -27 -42 -62 -82 -125 -215 -156 -331 -9 -30 -21 -75 -28 -100 -13 -45
-22 -98 -39 -222 -5 -36 -13 -84 -19 -105 -6 -21 -11 -49 -11 -63 0 -14 -7
-38 -15 -54 -8 -15 -15 -39 -15 -52 0 -13 -4 -32 -10 -42 -11 -20 -39 -96 -47
-129 -3 -13 -9 -23 -14 -23 -5 0 -9 -6 -9 -12 0 -13 -60 -138 -71 -148 -3 -3
-20 -30 -38 -60 -50 -81 -109 -156 -193 -240 -76 -77 -161 -152 -180 -159 -6
-2 -18 -11 -28 -20 -9 -9 -38 -32 -64 -51 -26 -19 -62 -48 -81 -65 -18 -16
-51 -44 -72 -62 -46 -38 -78 -67 -158 -137 -33 -29 -79 -70 -102 -91 -45 -39
-55 -75 -30 -108 11 -16 70 -17 837 -15 l825 3 21 40 21 40 -6 1230 c-5 1125
-7 1230 -22 1233 -9 2 -24 -4 -32 -13z"/>
<path d="M5420 5548 c-126 -15 -143 -69 -51 -157 117 -110 340 -270 379 -271
6 0 12 -4 12 -10 0 -5 7 -10 16 -10 9 0 28 -6 42 -14 52 -26 103 -46 121 -46
10 0 21 -3 25 -7 11 -11 99 -33 176 -44 36 -5 77 -13 91 -19 34 -14 383 -8
474 9 85 16 174 39 197 52 10 5 26 9 35 9 10 0 31 7 47 15 15 8 32 15 36 15
15 0 145 63 148 71 2 5 9 9 16 9 7 0 32 14 54 30 23 17 44 30 48 30 3 0 11 6
19 13 7 6 26 22 42 34 15 12 46 38 68 58 22 20 56 48 75 63 60 45 74 64 74 99
0 64 -12 68 -224 71 -207 3 -359 -8 -460 -33 -182 -45 -254 -54 -430 -54 -177
0 -191 1 -490 58 -218 41 -372 50 -540 29z"/>
<path d="M5312 2416 c-61 -21 -72 -47 -72 -168 0 -106 0 -107 31 -137 29 -29
35 -31 109 -31 72 0 80 2 109 29 l31 29 0 114 c0 106 -2 116 -22 136 -22 20
-92 42 -133 41 -11 0 -35 -6 -53 -13z"/>
<path d="M7485 2416 c-48 -21 -67 -49 -63 -93 l3 -38 135 0 135 0 3 38 c4 45
-15 72 -65 93 -41 17 -109 17 -148 0z"/>
</g>
</svg>
